<?xml version="1.0" encoding="UTF-8" standalone="no"?>
<!DOCTYPE svg PUBLIC "-//W3C//DTD SVG 1.1//EN"
 "http://www.w3.org/Graphics/SVG/1.1/DTD/svg11.dtd">
<!-- Generated by graphviz version 2.47.3 (20210619.1520)
 -->
<!-- Title: dbml Pages: 1 -->
<svg width="1514pt" height="729pt"
 viewBox="0.00 0.00 1513.99 729.14" xmlns="http://www.w3.org/2000/svg" xmlns:xlink="http://www.w3.org/1999/xlink">
<g id="graph0" class="graph" transform="scale(1 1) rotate(0) translate(4 725.14)">
<title>dbml</title>
<!-- ChainTransactionType -->
<g id="ChainTransactionType" class="node">
<title>ChainTransactionType</title>
<ellipse fill="none" stroke="black" stroke-width="0" cx="703.57" cy="-311.23" rx="227.64" ry="27.31"/>
<text text-anchor="middle" x="703.57" y="-301.63" font-family="Helvetica,sans-Serif" font-size="32.00" fill="#29235c">ChainTransactionType</text>
</g>
<!-- DiscoveryState -->
<g id="DiscoveryState" class="node">
<title>DiscoveryState</title>
<ellipse fill="none" stroke="black" stroke-width="0" cx="1353.86" cy="-239.23" rx="152.25" ry="27.31"/>
<text text-anchor="middle" x="1353.86" y="-229.63" font-family="Helvetica,sans-Serif" font-size="32.00" fill="#29235c">DiscoveryState</text>
</g>
<!-- Discovery -->
<g id="Discovery" class="node">
<title>Discovery</title>
<ellipse fill="none" stroke="black" stroke-width="0" cx="1066.44" cy="-239.23" rx="99.1" ry="27.31"/>
<text text-anchor="middle" x="1066.44" y="-229.63" font-family="Helvetica,sans-Serif" font-size="32.00" fill="#29235c">Discovery</text>
</g>
<!-- Discovery&#45;&gt;DiscoveryState -->
<g id="edge43" class="edge">
<title>Discovery:e&#45;&gt;DiscoveryState:w</title>
<path fill="none" stroke="#29235c" stroke-width="3" d="M1166.06,-239.23C1177.58,-239.23 1189.53,-239.23 1201.56,-239.23"/>
</g>
<!-- User -->
<g id="User" class="node">
<title>User</title>
<ellipse fill="none" stroke="black" stroke-width="0" cx="1353.86" cy="-449.23" rx="47.52" ry="27.31"/>
<text text-anchor="middle" x="1353.86" y="-439.63" font-family="Helvetica,sans-Serif" font-size="32.00" fill="#29235c">User</text>
</g>
<!-- Discovery&#45;&gt;User -->
<!-- Discovery&#45;&gt;User -->
<g id="edge2" class="edge">
<title>Discovery:e&#45;&gt;User:w</title>
<path fill="none" stroke="#29235c" stroke-width="3" d="M1118.97,-262.35C1134.6,-268.3 1151.41,-275.44 1165.74,-284.23 1227.35,-322.01 1286.32,-382.17 1321.07,-418.6"/>
<polygon fill="#29235c" stroke="#29235c" stroke-width="3" points="1318.68,-421.17 1328.11,-426 1323.75,-416.35 1318.68,-421.17"/>
<text text-anchor="middle" x="1337" y="-397.2" font-family="Helvetica,sans-Serif" font-size="32.00" fill="#29235c">1</text>
<text text-anchor="middle" x="1125.19" y="-271.95" font-family="Helvetica,sans-Serif" font-size="32.00" fill="#29235c">*</text>
</g>
<!-- Vault -->
<g id="Vault" class="node">
<title>Vault</title>
<ellipse fill="none" stroke="black" stroke-width="0" cx="1353.86" cy="-107.23" rx="51.61" ry="27.31"/>
<text text-anchor="middle" x="1353.86" y="-97.63" font-family="Helvetica,sans-Serif" font-size="32.00" fill="#29235c">Vault</text>
</g>
<!-- Discovery&#45;&gt;Vault -->
<!-- Discovery&#45;&gt;Vault -->
<g id="edge4" class="edge">
<title>Discovery:e&#45;&gt;Vault:w</title>
<path fill="none" stroke="#29235c" stroke-width="3" d="M1126.58,-217.47C1181.19,-193.94 1261.01,-156.82 1309.8,-132.14"/>
<polygon fill="#29235c" stroke="#29235c" stroke-width="3" points="1311.52,-135.19 1318.83,-127.53 1308.33,-128.96 1311.52,-135.19"/>
<text text-anchor="middle" x="1309.94" y="-137.13" font-family="Helvetica,sans-Serif" font-size="32.00" fill="#29235c">1</text>
<text text-anchor="middle" x="1120.35" y="-188.67" font-family="Helvetica,sans-Serif" font-size="32.00" fill="#29235c">*</text>
</g>
<!-- DiscoveryVersion -->
<g id="DiscoveryVersion" class="node">
<title>DiscoveryVersion</title>
<ellipse fill="none" stroke="black" stroke-width="0" cx="703.57" cy="-239.23" rx="175.99" ry="27.31"/>
<text text-anchor="middle" x="703.57" y="-229.63" font-family="Helvetica,sans-Serif" font-size="32.00" fill="#29235c">DiscoveryVersion</text>
</g>
<!-- DiscoveryVersion&#45;&gt;Discovery -->
<!-- DiscoveryVersion&#45;&gt;Discovery -->
<g id="edge6" class="edge">
<title>DiscoveryVersion:e&#45;&gt;Discovery:w</title>
<path fill="none" stroke="#29235c" stroke-width="3" d="M874.17,-245.97C903.21,-246.02 932.63,-245.85 959.4,-245.44"/>
<polygon fill="#29235c" stroke="#29235c" stroke-width="3" points="959.58,-248.94 969.52,-245.27 959.46,-241.94 959.58,-248.94"/>
<text text-anchor="middle" x="960.63" y="-254.87" font-family="Helvetica,sans-Serif" font-size="32.00" fill="#29235c">1</text>
<text text-anchor="middle" x="880.39" y="-245.97" font-family="Helvetica,sans-Serif" font-size="32.00" fill="#29235c">*</text>
</g>
<!-- Invite -->
<g id="Invite" class="node">
<title>Invite</title>
<ellipse fill="none" stroke="black" stroke-width="0" cx="1066.44" cy="-311.23" rx="54.14" ry="27.31"/>
<text text-anchor="middle" x="1066.44" y="-301.63" font-family="Helvetica,sans-Serif" font-size="32.00" fill="#29235c">Invite</text>
</g>
<!-- Invite&#45;&gt;User -->
<!-- Invite&#45;&gt;User -->
<g id="edge8" class="edge">
<title>Invite:e&#45;&gt;User:w</title>
<path fill="none" stroke="#29235c" stroke-width="3" d="M1116.29,-322.12C1132.18,-328.24 1149.82,-335.8 1165.74,-343.23 1218.84,-368.01 1278.74,-399.75 1316.15,-422.25"/>
<polygon fill="#29235c" stroke="#29235c" stroke-width="3" points="1314.34,-425.24 1324.7,-427.47 1317.99,-419.27 1314.34,-425.24"/>
<text text-anchor="middle" x="1315.8" y="-398.67" font-family="Helvetica,sans-Serif" font-size="32.00" fill="#29235c">1</text>
<text text-anchor="middle" x="1122.51" y="-331.72" font-family="Helvetica,sans-Serif" font-size="32.00" fill="#29235c">*</text>
</g>
<!-- Invite&#45;&gt;User -->
<!-- Invite&#45;&gt;User -->
<g id="edge10" class="edge">
<title>Invite:e&#45;&gt;User:w</title>
<path fill="none" stroke="#29235c" stroke-width="3" d="M1084.32,-337.14C1104.05,-352.54 1137.59,-366.09 1165.74,-379.23 1210.48,-400.11 1260.05,-425.93 1296.92,-441.72"/>
<polygon fill="#29235c" stroke="#29235c" stroke-width="3" points="1295.91,-445.1 1306.49,-445.71 1298.6,-438.63 1295.91,-445.1"/>
<text text-anchor="middle" x="1297.59" y="-416.91" font-family="Helvetica,sans-Serif" font-size="32.00" fill="#29235c">1</text>
<text text-anchor="middle" x="1090.54" y="-346.74" font-family="Helvetica,sans-Serif" font-size="32.00" fill="#29235c">*</text>
</g>
<!-- AuthorInvite -->
<g id="AuthorInvite" class="node">
<title>AuthorInvite</title>
<ellipse fill="none" stroke="black" stroke-width="0" cx="703.57" cy="-455.23" rx="120.93" ry="27.31"/>
<text text-anchor="middle" x="703.57" y="-445.63" font-family="Helvetica,sans-Serif" font-size="32.00" fill="#29235c">AuthorInvite</text>
</g>
<!-- AuthorInvite&#45;&gt;Discovery -->
<!-- AuthorInvite&#45;&gt;Discovery -->
<g id="edge12" class="edge">
<title>AuthorInvite:e&#45;&gt;Discovery:w</title>
<path fill="none" stroke="#29235c" stroke-width="3" d="M802.31,-470.89C846.71,-469.89 896.85,-459.64 931.14,-428.23 979.78,-383.66 923.03,-333.28 967.14,-284.23 974.53,-276 983.97,-269.65 994.06,-264.63"/>
<polygon fill="#29235c" stroke="#29235c" stroke-width="3" points="995.79,-267.69 1003.46,-260.38 992.91,-261.31 995.79,-267.69"/>
<text text-anchor="middle" x="994.57" y="-269.98" font-family="Helvetica,sans-Serif" font-size="32.00" fill="#29235c">1</text>
<text text-anchor="middle" x="808.54" y="-480.49" font-family="Helvetica,sans-Serif" font-size="32.00" fill="#29235c">*</text>
</g>
<!-- AuthorInvite&#45;&gt;User -->
<!-- AuthorInvite&#45;&gt;User -->
<g id="edge14" class="edge">
<title>AuthorInvite:e&#45;&gt;User:w</title>
<path fill="none" stroke="#29235c" stroke-width="3" d="M821.22,-448.82C961.28,-445.26 1190.51,-443.58 1296.21,-445.73"/>
<polygon fill="#29235c" stroke="#29235c" stroke-width="3" points="1296.27,-449.23 1306.35,-445.96 1296.43,-442.23 1296.27,-449.23"/>
<text text-anchor="middle" x="1297.46" y="-455.56" font-family="Helvetica,sans-Serif" font-size="32.00" fill="#29235c">1</text>
<text text-anchor="middle" x="827.44" y="-420.02" font-family="Helvetica,sans-Serif" font-size="32.00" fill="#29235c">*</text>
</g>
<!-- AuthorInvite&#45;&gt;User -->
<!-- AuthorInvite&#45;&gt;User -->
<g id="edge16" class="edge">
<title>AuthorInvite:e&#45;&gt;User:w</title>
<path fill="none" stroke="#29235c" stroke-width="3" d="M806.57,-469.51C946.48,-475.93 1192.75,-472.48 1300.22,-461.41"/>
<polygon fill="#29235c" stroke="#29235c" stroke-width="3" points="1300.62,-464.89 1310.18,-460.32 1299.86,-457.93 1300.62,-464.89"/>
<text text-anchor="middle" x="1319.07" y="-469.92" font-family="Helvetica,sans-Serif" font-size="32.00" fill="#29235c">1</text>
<text text-anchor="middle" x="800.35" y="-479.11" font-family="Helvetica,sans-Serif" font-size="32.00" fill="#29235c">*</text>
</g>
<!-- DiscoveryAuthor -->
<g id="DiscoveryAuthor" class="node">
<title>DiscoveryAuthor</title>
<ellipse fill="none" stroke="black" stroke-width="0" cx="703.57" cy="-111.23" rx="165.89" ry="27.31"/>
<text text-anchor="middle" x="703.57" y="-101.63" font-family="Helvetica,sans-Serif" font-size="32.00" fill="#29235c">DiscoveryAuthor</text>
</g>
<!-- DiscoveryAuthor&#45;&gt;Discovery -->
<!-- DiscoveryAuthor&#45;&gt;Discovery -->
<g id="edge20" class="edge">
<title>DiscoveryAuthor:e&#45;&gt;Discovery:w</title>
<path fill="none" stroke="#29235c" stroke-width="3" d="M817.06,-131.13C854.25,-137.71 895.27,-147.03 931.14,-161.23 961.29,-173.16 991.87,-192.3 1016.22,-208.74"/>
<polygon fill="#29235c" stroke="#29235c" stroke-width="3" points="1014.32,-211.69 1024.56,-214.43 1018.27,-205.91 1014.32,-211.69"/>
<text text-anchor="middle" x="1015.66" y="-185.63" font-family="Helvetica,sans-Serif" font-size="32.00" fill="#29235c">1</text>
<text text-anchor="middle" x="823.28" y="-140.73" font-family="Helvetica,sans-Serif" font-size="32.00" fill="#29235c">*</text>
</g>
<!-- DiscoveryAuthor&#45;&gt;User -->
<!-- DiscoveryAuthor&#45;&gt;User -->
<g id="edge18" class="edge">
<title>DiscoveryAuthor:e&#45;&gt;User:w</title>
<path fill="none" stroke="#29235c" stroke-width="3" d="M865.97,-116.96C961.73,-124.72 1080.65,-147.27 1165.74,-212.23 1194.17,-233.94 1181.85,-254.49 1201.74,-284.23 1236.23,-335.8 1284.38,-388.74 1316.99,-420.46"/>
<polygon fill="#29235c" stroke="#29235c" stroke-width="3" points="1314.88,-423.29 1324.52,-427.67 1319.72,-418.23 1314.88,-423.29"/>
<text text-anchor="middle" x="1333.42" y="-398.87" font-family="Helvetica,sans-Serif" font-size="32.00" fill="#29235c">1</text>
<text text-anchor="middle" x="872.19" y="-126.56" font-family="Helvetica,sans-Serif" font-size="32.00" fill="#29235c">*</text>
</g>
<!-- DiscoveryVote -->
<g id="DiscoveryVote" class="node">
<title>DiscoveryVote</title>
<ellipse fill="none" stroke="black" stroke-width="0" cx="703.57" cy="-383.23" rx="145.67" ry="27.31"/>
<text text-anchor="middle" x="703.57" y="-373.63" font-family="Helvetica,sans-Serif" font-size="32.00" fill="#29235c">DiscoveryVote</text>
</g>
<!-- DiscoveryVote&#45;&gt;Discovery -->
<!-- DiscoveryVote&#45;&gt;Discovery -->
<g id="edge24" class="edge">
<title>DiscoveryVote:e&#45;&gt;Discovery:w</title>
<path fill="none" stroke="#29235c" stroke-width="3" d="M843.92,-390.7C874.86,-385.24 905.92,-374.71 931.14,-356.23 960,-335.08 940.45,-308.06 967.14,-284.23 975.98,-276.33 986.7,-270.12 997.76,-265.1"/>
<polygon fill="#29235c" stroke="#29235c" stroke-width="3" points="999.25,-268.27 1007.1,-261.15 996.53,-261.82 999.25,-268.27"/>
<text text-anchor="middle" x="1016" y="-261.15" font-family="Helvetica,sans-Serif" font-size="32.00" fill="#29235c">1</text>
<text text-anchor="middle" x="850.14" y="-400.3" font-family="Helvetica,sans-Serif" font-size="32.00" fill="#29235c">*</text>
</g>
<!-- DiscoveryVote&#45;&gt;User -->
<!-- DiscoveryVote&#45;&gt;User -->
<g id="edge22" class="edge">
<title>DiscoveryVote:e&#45;&gt;User:w</title>
<path fill="none" stroke="#29235c" stroke-width="3" d="M818.23,-400.08C957.75,-416.59 1188.93,-439.72 1295.64,-447.44"/>
<polygon fill="#29235c" stroke="#29235c" stroke-width="3" points="1295.66,-450.95 1305.88,-448.16 1296.15,-443.97 1295.66,-450.95"/>
<text text-anchor="middle" x="1296.99" y="-457.76" font-family="Helvetica,sans-Serif" font-size="32.00" fill="#29235c">1</text>
<text text-anchor="middle" x="812.01" y="-409.68" font-family="Helvetica,sans-Serif" font-size="32.00" fill="#29235c">*</text>
</g>
<!-- DiscoveryReview -->
<g id="DiscoveryReview" class="node">
<title>DiscoveryReview</title>
<ellipse fill="none" stroke="black" stroke-width="0" cx="703.57" cy="-619.23" rx="173.42" ry="27.31"/>
<text text-anchor="middle" x="703.57" y="-609.63" font-family="Helvetica,sans-Serif" font-size="32.00" fill="#29235c">DiscoveryReview</text>
</g>
<!-- DiscoveryReview&#45;&gt;Discovery -->
<!-- DiscoveryReview&#45;&gt;Discovery -->
<g id="edge28" class="edge">
<title>DiscoveryReview:e&#45;&gt;Discovery:w</title>
<path fill="none" stroke="#29235c" stroke-width="3" d="M798.39,-596.46C845.5,-577.2 899.2,-545.84 931.14,-500.23 986.96,-420.5 905,-359.14 967.14,-284.23 974.11,-275.82 983.23,-269.38 993.1,-264.32"/>
<polygon fill="#29235c" stroke="#29235c" stroke-width="3" points="994.72,-267.42 1002.33,-260.05 991.79,-261.07 994.72,-267.42"/>
<text text-anchor="middle" x="993.44" y="-231.25" font-family="Helvetica,sans-Serif" font-size="32.00" fill="#29235c">1</text>
<text text-anchor="middle" x="804.61" y="-567.66" font-family="Helvetica,sans-Serif" font-size="32.00" fill="#29235c">*</text>
</g>
<!-- DiscoveryReview&#45;&gt;User -->
<!-- DiscoveryReview&#45;&gt;User -->
<g id="edge26" class="edge">
<title>DiscoveryReview:e&#45;&gt;User:w</title>
<path fill="none" stroke="#29235c" stroke-width="3" d="M846.15,-634.74C939.57,-636.67 1063.18,-628.55 1165.74,-591.23 1230.16,-567.79 1292.48,-515.81 1326.45,-481.49"/>
<polygon fill="#29235c" stroke="#29235c" stroke-width="3" points="1329.22,-483.65 1333.65,-474.03 1324.19,-478.79 1329.22,-483.65"/>
<text text-anchor="middle" x="1342.55" y="-483.63" font-family="Helvetica,sans-Serif" font-size="32.00" fill="#29235c">1</text>
<text text-anchor="middle" x="852.38" y="-644.34" font-family="Helvetica,sans-Serif" font-size="32.00" fill="#29235c">*</text>
</g>
<!-- DiscoveryReviewVote -->
<g id="DiscoveryReviewVote" class="node">
<title>DiscoveryReviewVote</title>
<ellipse fill="none" stroke="black" stroke-width="0" cx="220" cy="-651.23" rx="219.99" ry="27.31"/>
<text text-anchor="middle" x="220" y="-641.63" font-family="Helvetica,sans-Serif" font-size="32.00" fill="#29235c">DiscoveryReviewVote</text>
</g>
<!-- DiscoveryReviewVote&#45;&gt;User -->
<!-- DiscoveryReviewVote&#45;&gt;User -->
<g id="edge30" class="edge">
<title>DiscoveryReviewVote:e&#45;&gt;User:w</title>
<path fill="none" stroke="#29235c" stroke-width="3" d="M308.74,-676.16C482.23,-714.75 877.32,-770.35 1165.74,-634.23 1238.33,-599.96 1301.35,-526.87 1332.37,-483.36"/>
<polygon fill="#29235c" stroke="#29235c" stroke-width="3" points="1335.3,-485.28 1338.14,-475.08 1329.56,-481.28 1335.3,-485.28"/>
<text text-anchor="middle" x="1329.25" y="-484.68" font-family="Helvetica,sans-Serif" font-size="32.00" fill="#29235c">1</text>
<text text-anchor="middle" x="302.51" y="-685.76" font-family="Helvetica,sans-Serif" font-size="32.00" fill="#29235c">*</text>
</g>
<!-- DiscoveryReviewVote&#45;&gt;DiscoveryReview -->
<!-- DiscoveryReviewVote&#45;&gt;DiscoveryReview -->
<g id="edge32" class="edge">
<title>DiscoveryReviewVote:e&#45;&gt;DiscoveryReview:w</title>
<path fill="none" stroke="#29235c" stroke-width="3" d="M432.22,-643.9C472.35,-641.35 513.6,-638.48 551.41,-635.59"/>
<polygon fill="#29235c" stroke="#29235c" stroke-width="3" points="551.76,-639.07 561.46,-634.81 551.22,-632.09 551.76,-639.07"/>
<text text-anchor="middle" x="552.56" y="-644.41" font-family="Helvetica,sans-Serif" font-size="32.00" fill="#29235c">1</text>
<text text-anchor="middle" x="438.44" y="-615.1" font-family="Helvetica,sans-Serif" font-size="32.00" fill="#29235c">*</text>
</g>
<!-- ChainTransaction -->
<g id="ChainTransaction" class="node">
<title>ChainTransaction</title>
<ellipse fill="none" stroke="black" stroke-width="0" cx="220" cy="-383.23" rx="177.05" ry="27.31"/>
<text text-anchor="middle" x="220" y="-373.63" font-family="Helvetica,sans-Serif" font-size="32.00" fill="#29235c">ChainTransaction</text>
</g>
<!-- ChainTransaction&#45;&gt;ChainTransactionType -->
<g id="edge44" class="edge">
<title>ChainTransaction:e&#45;&gt;ChainTransactionType:w</title>
<path fill="none" stroke="#29235c" stroke-width="3" d="M347.52,-364.31C413.01,-354.52 493.18,-342.53 560.75,-332.43"/>
</g>
<!-- ChainTransaction&#45;&gt;Discovery -->
<!-- ChainTransaction&#45;&gt;Discovery -->
<g id="edge34" class="edge">
<title>ChainTransaction:e&#45;&gt;Discovery:w</title>
<path fill="none" stroke="#29235c" stroke-width="3" d="M253.12,-356.35C298.16,-315.76 384.83,-241.16 475.99,-212.23 668.8,-151.03 730.58,-185.81 931.14,-212.23 945.96,-214.18 961.47,-217.29 976.47,-220.77"/>
<polygon fill="#29235c" stroke="#29235c" stroke-width="3" points="975.7,-224.18 986.24,-223.09 977.32,-217.37 975.7,-224.18"/>
<text text-anchor="middle" x="977.34" y="-194.29" font-family="Helvetica,sans-Serif" font-size="32.00" fill="#29235c">1</text>
<text text-anchor="middle" x="259.35" y="-327.55" font-family="Helvetica,sans-Serif" font-size="32.00" fill="#29235c">*</text>
</g>
<!-- ChainTransaction&#45;&gt;User -->
<!-- ChainTransaction&#45;&gt;User -->
<g id="edge36" class="edge">
<title>ChainTransaction:e&#45;&gt;User:w</title>
<path fill="none" stroke="#29235c" stroke-width="3" d="M279.61,-408.84C329.93,-433.21 405.34,-467.81 475.99,-482.23 776.36,-543.53 861.14,-517.77 1165.74,-483.23 1210.54,-478.15 1260.25,-466.43 1297.16,-457.83"/>
<polygon fill="#29235c" stroke="#29235c" stroke-width="3" points="1298.27,-461.17 1307.22,-455.5 1296.69,-454.35 1298.27,-461.17"/>
<text text-anchor="middle" x="1316.12" y="-465.1" font-family="Helvetica,sans-Serif" font-size="32.00" fill="#29235c">1</text>
<text text-anchor="middle" x="273.38" y="-418.44" font-family="Helvetica,sans-Serif" font-size="32.00" fill="#29235c">*</text>
</g>
<!-- ChainTransaction&#45;&gt;User -->
<!-- ChainTransaction&#45;&gt;User -->
<g id="edge38" class="edge">
<title>ChainTransaction:e&#45;&gt;User:w</title>
<path fill="none" stroke="#29235c" stroke-width="3" d="M241.56,-410.3C283.75,-446.36 383.9,-499.43 475.99,-518.23 776.36,-579.53 861.14,-553.77 1165.74,-519.23 1221.38,-512.92 1284.57,-496.37 1321.45,-478.11"/>
<polygon fill="#29235c" stroke="#29235c" stroke-width="3" points="1323.51,-480.98 1330.68,-473.18 1320.21,-474.81 1323.51,-480.98"/>
<text text-anchor="middle" x="1339.57" y="-444.38" font-family="Helvetica,sans-Serif" font-size="32.00" fill="#29235c">1</text>
<text text-anchor="middle" x="235.34" y="-419.9" font-family="Helvetica,sans-Serif" font-size="32.00" fill="#29235c">*</text>
</g>
<!-- ChainTransaction&#45;&gt;DiscoveryVote -->
<!-- ChainTransaction&#45;&gt;DiscoveryVote -->
<g id="edge42" class="edge">
<title>ChainTransaction:e&#45;&gt;DiscoveryVote:w</title>
<path fill="none" stroke="#29235c" stroke-width="3" d="M392.14,-389.72C444.09,-390.11 500.78,-390.06 551.33,-389.54"/>
<polygon fill="#29235c" stroke="#29235c" stroke-width="3" points="551.4,-393.04 561.36,-389.44 551.32,-386.04 551.4,-393.04"/>
<text text-anchor="middle" x="552.46" y="-399.04" font-family="Helvetica,sans-Serif" font-size="32.00" fill="#29235c">1</text>
<text text-anchor="middle" x="401.03" y="-399.32" font-family="Helvetica,sans-Serif" font-size="32.00" fill="#29235c">1</text>
</g>
<!-- ChainTransaction&#45;&gt;Vault -->
<!-- ChainTransaction&#45;&gt;Vault -->
<g id="edge40" class="edge">
<title>ChainTransaction:e&#45;&gt;Vault:w</title>
<path fill="none" stroke="#29235c" stroke-width="3" d="M235.67,-355.86C267.95,-293.45 352.24,-142.43 475.99,-84.23 759.37,49.05 1153.05,-52.35 1297.17,-92.81"/>
<polygon fill="#29235c" stroke="#29235c" stroke-width="3" points="1296.53,-96.27 1307.11,-95.62 1298.43,-89.53 1296.53,-96.27"/>
<text text-anchor="middle" x="1298.21" y="-66.82" font-family="Helvetica,sans-Serif" font-size="32.00" fill="#29235c">1</text>
<text text-anchor="middle" x="229.45" y="-327.06" font-family="Helvetica,sans-Serif" font-size="32.00" fill="#29235c">*</text>
</g>
</g>
</svg>
