<svg xmlns="http://www.w3.org/2000/svg" width="193" height="60" viewBox="0 0 193 60" fill="none"><path d="M59.1051 39.1784H53V21.9434H59.1651C60.9052 21.9434 62.3902 22.2884 63.6352 22.9784C64.8803 23.6684 65.8553 24.6584 66.5303 25.9334C67.2053 27.2234 67.5503 28.7534 67.5503 30.5384C67.5503 32.3384 67.2053 33.8834 66.5303 35.1734C65.8553 36.4634 64.8803 37.4534 63.6202 38.1434C62.3602 38.8334 60.8602 39.1784 59.1051 39.1784ZM56.6451 36.0584H58.9551C60.0352 36.0584 60.9352 35.8634 61.6852 35.4884C62.4202 35.0984 62.9752 34.5134 63.3502 33.6884C63.7252 32.8784 63.9052 31.8284 63.9052 30.5384C63.9052 29.2634 63.7252 28.2284 63.3502 27.4184C62.9752 26.6084 62.4202 26.0084 61.6852 25.6334C60.9502 25.2584 60.0502 25.0634 58.9701 25.0634H56.6451V36.0584Z" fill="#EDEDEF" stroke="#EDEDEF" stroke-width="0.150002" stroke-miterlimit="10"></path><path d="M76.0608 39.432C74.7257 39.432 73.5857 39.162 72.6257 38.622C71.6657 38.082 70.9307 37.317 70.4206 36.312C69.9106 35.322 69.6406 34.137 69.6406 32.772C69.6406 31.437 69.8956 30.282 70.4206 29.277C70.9307 28.272 71.6657 27.492 72.6107 26.922C73.5557 26.367 74.6507 26.082 75.9258 26.082C76.7808 26.082 77.5758 26.217 78.3108 26.487C79.0458 26.757 79.6909 27.162 80.2459 27.717C80.8009 28.257 81.2359 28.947 81.5359 29.772C81.8509 30.597 82.0009 31.557 82.0009 32.652V33.642H71.0807V31.422H78.6258C78.6258 30.912 78.5208 30.447 78.2958 30.057C78.0708 29.652 77.7558 29.352 77.3658 29.112C76.9758 28.887 76.5108 28.767 75.9858 28.767C75.4458 28.767 74.9657 28.887 74.5457 29.142C74.1257 29.397 73.7957 29.727 73.5707 30.147C73.3307 30.567 73.2107 31.032 73.2107 31.542V33.657C73.2107 34.302 73.3307 34.842 73.5707 35.322C73.8107 35.787 74.1407 36.147 74.5907 36.402C75.0257 36.657 75.5508 36.777 76.1508 36.777C76.5558 36.777 76.9158 36.717 77.2458 36.612C77.5758 36.507 77.8608 36.327 78.1008 36.102C78.3408 35.877 78.5208 35.607 78.6408 35.277L81.9559 35.502C81.7909 36.297 81.4459 36.987 80.9209 37.587C80.3959 38.172 79.7358 38.637 78.9108 38.967C78.0708 39.267 77.1258 39.432 76.0608 39.432Z" fill="#EDEDEF" stroke="#EDEDEF" stroke-width="0.150002" stroke-miterlimit="10"></path><path d="M93.7668 26.8941C93.7068 26.2191 93.4068 25.6941 92.8968 25.3191C92.3868 24.9441 91.6967 24.7491 90.8117 24.7491C90.2117 24.7491 89.7167 24.8391 89.3117 25.0041C88.9067 25.1691 88.5917 25.3941 88.3667 25.6941C88.1567 25.9791 88.0367 26.3241 88.0367 26.6841C88.0216 26.9991 88.0966 27.2691 88.2317 27.4941C88.3817 27.7191 88.5767 27.9291 88.8317 28.0941C89.0867 28.2591 89.3717 28.4091 89.7017 28.5291C90.0317 28.6491 90.3917 28.7541 90.7667 28.8291L92.3117 29.2041C93.0618 29.3691 93.7518 29.5941 94.3818 29.8791C95.0118 30.1641 95.5518 30.5091 96.0168 30.9141C96.4818 31.3191 96.8419 31.7991 97.0969 32.3691C97.3519 32.9241 97.4869 33.5541 97.4869 34.2741C97.4869 35.3241 97.2169 36.2391 96.6768 37.0191C96.1368 37.7991 95.3868 38.3841 94.3818 38.8191C93.3918 39.2391 92.1917 39.4491 90.7817 39.4491C89.3867 39.4491 88.1867 39.2391 87.1516 38.8041C86.1166 38.3841 85.3216 37.7391 84.7516 36.8991C84.1816 36.0591 83.8816 35.0241 83.8516 33.7791H87.3766C87.4216 34.3641 87.5866 34.8441 87.8717 35.2191C88.1717 35.6091 88.5617 35.8941 89.0567 36.0891C89.5517 36.2841 90.1217 36.3741 90.7367 36.3741C91.3517 36.3741 91.8917 36.2841 92.3417 36.1041C92.7918 35.9241 93.1518 35.6691 93.4068 35.3541C93.6618 35.0391 93.7818 34.6641 93.7818 34.2591C93.7818 33.8691 93.6618 33.5391 93.4368 33.2841C93.2118 33.0141 92.8818 32.7891 92.4468 32.6091C92.0117 32.4291 91.4867 32.2491 90.8567 32.0991L88.9817 31.6341C87.5266 31.2741 86.3866 30.7341 85.5466 29.9691C84.7066 29.2191 84.2866 28.1991 84.2866 26.9241C84.2866 25.8741 84.5566 24.9741 85.1266 24.1941C85.6966 23.4141 86.4616 22.7991 87.4516 22.3641C88.4417 21.9291 89.5667 21.7041 90.8117 21.7041C92.0867 21.7041 93.2118 21.9291 94.1718 22.3641C95.1318 22.7991 95.8668 23.4141 96.4068 24.1941C96.9468 24.9741 97.2169 25.8741 97.2319 26.9091H93.7668V26.8941Z" fill="#EDEDEF" stroke="#EDEDEF" stroke-width="0.150002" stroke-miterlimit="10"></path><path d="M105.699 39.432C104.379 39.432 103.239 39.147 102.279 38.592C101.334 38.022 100.599 37.242 100.089 36.237C99.5792 35.232 99.3242 34.077 99.3242 32.772C99.3242 31.452 99.5792 30.282 100.089 29.277C100.599 28.272 101.334 27.492 102.279 26.922C103.224 26.352 104.349 26.082 105.669 26.082C106.794 26.082 107.784 26.292 108.639 26.697C109.479 27.102 110.154 27.687 110.649 28.422C111.144 29.157 111.414 30.027 111.459 31.032H108.084C107.994 30.387 107.739 29.862 107.334 29.472C106.929 29.082 106.389 28.872 105.744 28.872C105.189 28.872 104.709 29.022 104.289 29.322C103.884 29.622 103.554 30.057 103.329 30.627C103.104 31.197 102.984 31.887 102.984 32.712C102.984 33.537 103.104 34.242 103.329 34.812C103.554 35.382 103.884 35.832 104.289 36.132C104.709 36.432 105.189 36.582 105.744 36.582C106.149 36.582 106.524 36.492 106.854 36.327C107.184 36.162 107.454 35.907 107.664 35.592C107.874 35.262 108.024 34.887 108.084 34.422H111.474C111.414 35.412 111.144 36.282 110.664 37.032C110.184 37.782 109.524 38.367 108.684 38.787C107.844 39.222 106.839 39.432 105.699 39.432Z" fill="#EDEDEF" stroke="#EDEDEF" stroke-width="0.150002" stroke-miterlimit="10"></path><path d="M115.568 24.5831C115.028 24.5831 114.578 24.4031 114.203 24.0581C113.828 23.6981 113.633 23.2781 113.633 22.7831C113.633 22.2881 113.828 21.8531 114.203 21.4931C114.578 21.1331 115.043 20.9531 115.568 20.9531C116.108 20.9531 116.558 21.1331 116.933 21.4781C117.308 21.8381 117.503 22.2581 117.503 22.7531C117.503 23.2481 117.308 23.6831 116.933 24.0431C116.558 24.4031 116.108 24.5831 115.568 24.5831ZM113.768 39.1781V26.2481H117.353V39.1781H113.768Z" fill="#EDEDEF" stroke="#EDEDEF" stroke-width="0.150002" stroke-miterlimit="10"></path><path d="M125.773 39.1784V21.9434H129.419V36.1784H136.814V39.1784H125.773Z" fill="#EDEDEF" stroke="#EDEDEF" stroke-width="0.150002" stroke-miterlimit="10"></path><path d="M142.845 39.4179C142.02 39.4179 141.285 39.2679 140.64 38.9829C139.995 38.6979 139.485 38.2629 139.11 37.6929C138.735 37.1229 138.555 36.4179 138.555 35.5629C138.555 34.8429 138.69 34.2429 138.945 33.7479C139.215 33.2529 139.575 32.8629 140.025 32.5629C140.475 32.2629 141 32.0379 141.585 31.8879C142.17 31.7379 142.77 31.6329 143.415 31.5729C144.165 31.4979 144.78 31.4229 145.23 31.3479C145.695 31.2729 146.025 31.1679 146.235 31.0329C146.445 30.8979 146.55 30.6879 146.55 30.4029V30.3579C146.55 29.8179 146.385 29.4129 146.055 29.1279C145.725 28.8429 145.245 28.6929 144.63 28.6929C143.985 28.6929 143.475 28.8279 143.085 29.1129C142.71 29.3979 142.455 29.7579 142.335 30.1779L139.02 29.9079C139.185 29.1279 139.515 28.4379 140.01 27.8679C140.505 27.2979 141.135 26.8479 141.93 26.5329C142.71 26.2179 143.625 26.0679 144.66 26.0679C145.38 26.0679 146.07 26.1579 146.73 26.3229C147.39 26.4879 147.975 26.7579 148.485 27.1029C148.995 27.4629 149.4 27.9129 149.7 28.4679C150 29.0229 150.15 29.6829 150.15 30.4479V39.1629H146.745V37.3629H146.625C146.415 37.7679 146.145 38.1279 145.785 38.4279C145.44 38.7279 145.02 38.9679 144.525 39.1479C144.045 39.3279 143.49 39.4179 142.845 39.4179ZM143.865 36.9429C144.39 36.9429 144.855 36.8379 145.26 36.6279C145.665 36.4179 145.98 36.1329 146.205 35.7729C146.43 35.4129 146.55 35.0079 146.55 34.5579V33.1929C146.445 33.2679 146.28 33.3279 146.085 33.3879C145.89 33.4479 145.68 33.4929 145.44 33.5529C145.2 33.5979 144.96 33.6429 144.72 33.6729C144.48 33.7029 144.255 33.7479 144.06 33.7629C143.64 33.8229 143.265 33.9279 142.95 34.0629C142.635 34.1979 142.395 34.3779 142.215 34.6029C142.035 34.8279 141.96 35.1129 141.96 35.4429C141.96 35.9379 142.14 36.2979 142.5 36.5529C142.86 36.8229 143.325 36.9429 143.865 36.9429Z" fill="#EDEDEF" stroke="#EDEDEF" stroke-width="0.150002" stroke-miterlimit="10"></path><path d="M152.973 39.1784V21.9434H156.558V28.4234H156.663C156.813 28.0784 157.053 27.7184 157.353 27.3584C157.653 26.9984 158.043 26.6984 158.538 26.4434C159.018 26.2034 159.633 26.0834 160.353 26.0834C161.298 26.0834 162.168 26.3234 162.963 26.8184C163.758 27.3134 164.403 28.0484 164.868 29.0384C165.348 30.0284 165.588 31.2584 165.588 32.7434C165.588 34.1834 165.363 35.3984 164.898 36.3884C164.433 37.3784 163.803 38.1284 163.008 38.6384C162.213 39.1484 161.328 39.4034 160.338 39.4034C159.648 39.4034 159.048 39.2834 158.568 39.0584C158.088 38.8334 157.683 38.5334 157.383 38.1884C157.068 37.8434 156.843 37.4834 156.678 37.1234H156.513V39.1934H152.973V39.1784ZM156.483 32.7134C156.483 33.4784 156.588 34.1534 156.798 34.7234C157.008 35.2934 157.323 35.7434 157.728 36.0584C158.133 36.3734 158.628 36.5384 159.198 36.5384C159.783 36.5384 160.278 36.3734 160.683 36.0584C161.088 35.7284 161.388 35.2934 161.598 34.7084C161.808 34.1384 161.913 33.4634 161.913 32.7134C161.913 31.9634 161.808 31.3034 161.598 30.7484C161.388 30.1934 161.088 29.7434 160.683 29.4134C160.278 29.0984 159.783 28.9334 159.198 28.9334C158.613 28.9334 158.118 29.0834 157.728 29.3984C157.323 29.7134 157.023 30.1484 156.813 30.7184C156.588 31.2734 156.483 31.9484 156.483 32.7134Z" fill="#EDEDEF" stroke="#EDEDEF" stroke-width="0.150002" stroke-miterlimit="10"></path><path d="M178.75 29.9376L175.465 30.1326C175.405 29.8476 175.285 29.5926 175.105 29.3676C174.925 29.1426 174.67 28.9626 174.37 28.8276C174.07 28.6926 173.71 28.6176 173.29 28.6176C172.735 28.6176 172.27 28.7376 171.88 28.9626C171.505 29.2026 171.31 29.5026 171.31 29.8926C171.31 30.2076 171.43 30.4626 171.685 30.6726C171.925 30.8826 172.36 31.0626 172.96 31.1826L175.3 31.6476C176.56 31.9026 177.49 32.3226 178.105 32.8926C178.72 33.4626 179.035 34.2126 179.035 35.1426C179.035 35.9826 178.78 36.7326 178.285 37.3776C177.79 38.0226 177.115 38.5176 176.245 38.8776C175.375 39.2376 174.385 39.4176 173.275 39.4176C171.565 39.4176 170.2 39.0576 169.195 38.3376C168.175 37.6176 167.59 36.6426 167.41 35.4126L170.935 35.2326C171.04 35.7576 171.295 36.1476 171.715 36.4176C172.12 36.6876 172.645 36.8226 173.29 36.8226C173.92 36.8226 174.43 36.7026 174.805 36.4626C175.195 36.2226 175.39 35.9076 175.39 35.5176C175.39 35.1876 175.24 34.9176 174.985 34.7076C174.715 34.4976 174.295 34.3326 173.74 34.2276L171.505 33.7776C170.245 33.5226 169.3 33.0876 168.685 32.4576C168.07 31.8276 167.77 31.0476 167.77 30.0726C167.77 29.2476 167.995 28.5276 168.445 27.9276C168.895 27.3276 169.54 26.8626 170.35 26.5326C171.175 26.2026 172.135 26.0376 173.245 26.0376C174.88 26.0376 176.17 26.3826 177.1 27.0726C178.045 27.8076 178.585 28.7376 178.75 29.9376Z" fill="#EDEDEF" stroke="#EDEDEF" stroke-width="0.150002" stroke-miterlimit="10"></path><path d="M16.8147 30.0153C16.7847 30.1503 17.0697 30.7503 17.4297 31.3653C17.7897 31.9653 18.9147 33.8703 19.9347 35.6103C20.9398 37.3353 22.2298 39.5403 22.7848 40.4853C23.3398 41.4303 24.9599 44.2053 26.3849 46.6353C27.8099 49.0653 29.0999 51.1953 29.2499 51.3603C29.505 51.6153 29.565 51.6303 29.73 51.4353C30.165 50.9703 42.0452 30.3753 42.0452 30.0903C42.0602 29.8203 41.6102 29.5953 38.8502 28.5303C37.0801 27.8403 35.6101 27.2553 35.5951 27.2403C35.5801 27.2253 35.6401 26.7153 35.7301 26.1153C36.0151 24.0903 35.3251 21.8253 34.0501 20.5503C33.705 20.2053 33.435 19.9053 33.435 19.8753C33.435 19.8453 34.1851 19.8603 35.1151 19.9053L36.7951 19.9803L35.9851 19.0653L35.1751 18.1353H31.86C29.1299 18.1503 28.4249 18.1953 27.8099 18.4053C26.0399 19.0203 24.8848 20.0403 24.1198 21.6303C23.5198 22.9053 23.3398 23.9403 23.4148 25.7253L23.4598 27.2553L20.1597 28.5003C17.8497 29.3853 16.8447 29.8353 16.8147 30.0153ZM40.6652 31.2153C40.5002 31.4853 38.0851 35.6253 35.3101 40.4103C32.52 45.1953 30.15 49.2453 30.03 49.4103C29.865 49.6653 29.835 48.6153 29.865 42.6153L29.91 35.5053L35.3101 33.1353C38.2801 31.8303 40.7702 30.7653 40.8302 30.7503C40.9052 30.7353 40.8302 30.9603 40.6652 31.2153ZM28.0949 20.5203C28.8299 20.1903 30.24 20.1453 30.93 20.4303C33.09 21.3453 34.0351 24.6303 33 27.6153C31.995 30.5403 29.595 31.5603 27.7199 29.8803C25.2149 27.6153 25.4549 21.7203 28.0949 20.5203ZM23.7148 28.2003C23.7598 28.1853 23.9548 28.4853 24.1348 28.8603C25.2899 31.2603 28.1399 32.6103 30.78 32.0253C32.64 31.6053 33.81 30.7503 34.8151 29.0703L35.3251 28.2303L37.4851 29.0703C38.6852 29.5503 39.7952 29.9703 39.9602 30.0453C40.1852 30.1203 38.9852 30.7053 34.9351 32.4753C32.01 33.7503 29.475 34.7703 29.3099 34.7403C28.8299 34.6503 18.7497 30.2253 18.8397 30.1353C18.8697 30.0903 19.9647 29.6403 21.2548 29.1303C22.5448 28.6203 23.6548 28.2003 23.7148 28.2003Z" fill="#EDEDEF" stroke="#EDEDEF" stroke-width="0.150002" stroke-miterlimit="10"></path><path d="M29.5869 14.3851L32.062 15.5101C33.442 16.1101 34.5821 16.5901 34.6121 16.5751C34.6421 16.5451 33.532 14.9401 32.152 13.0201C30.787 11.0851 29.647 9.49508 29.632 9.48008C29.617 9.46508 28.4469 11.0701 27.0369 13.0351C25.6269 15.0151 24.5018 16.6351 24.5318 16.6351C24.5618 16.6351 25.7169 16.1251 27.0819 15.5101L29.5869 14.3851Z" fill="#EDEDEF" stroke="#EDEDEF" stroke-width="0.150002" stroke-miterlimit="10"></path></svg>